<?xml version="1.0" encoding="UTF-8"?>
<svg width="445px" height="445px" viewBox="0 0 445 445" version="1.1" xmlns="http://www.w3.org/2000/svg" xmlns:xlink="http://www.w3.org/1999/xlink">
    <title>images / micromatic / icon</title>
    <g id="images-/-micromatic-/-icon" stroke="none" stroke-width="1" fill="none" fill-rule="evenodd">
        <g id="Group" transform="translate(-0.000000, 93.000000)" fill-rule="nonzero">
            <path d="M154.215042,131.529138 C154.219088,100.341603 135.435285,72.2227434 106.622921,60.2849859 C77.8105568,48.3472285 44.6440814,54.9416542 22.5897327,76.9931409 C0.535383929,99.0446277 -6.06334594,132.210247 5.8706722,161.02416 C17.8046903,189.838073 45.9211121,208.625526 77.1086476,208.625526 L154.155005,208.625526 L154.215042,131.529138 Z" id="Path" fill="#EE0000"></path>
            <path d="M243.19858,164.88921 L166.052163,164.88921 L165.961981,241.825501 L165.961981,241.825501 C165.905493,273.012964 184.641848,301.16343 213.43402,313.14975 C242.226192,325.136069 275.403717,318.597601 297.495222,296.583368 C319.586727,274.569136 326.241409,241.414725 314.35605,212.58073 C302.470691,183.746735 274.38605,164.911857 243.19858,164.859192 L243.19858,164.88921 Z" id="Path" fill="#EE0000"></path>
            <g transform="translate(165.061567, 0.000000)" fill="#000000">
                <polygon id="Path" points="-2.84388205e-14 1.66099939 12.727658 1.66099939 34.7409029 60.4163512 56.884226 1.66099939 69.611884 1.66099939 69.611884 71.573064 60.806586 71.573064 60.806586 13.4180734 60.6064656 13.4180734 38.7733291 71.573064 30.8485609 71.573064 9.00541837 13.4180734 8.81530398 13.4180734 8.81530398 71.573064 -2.84388205e-14 71.573064"></polygon>
                <polygon id="Path" points="77.6167003 1.66099939 86.9122933 1.66099939 86.9122933 71.573064 77.6167003 71.573064"></polygon>
                <path d="M143.926598,22.7136663 C141.975424,12.8277182 134.040649,7.83471398 124.344816,7.83471398 C107.704804,7.83471398 100.650559,21.5429619 100.650559,36.1317397 C100.650559,52.1413724 107.704804,65.4093554 124.444876,65.4093554 C136.682239,65.4093554 143.736483,56.7941719 144.617013,45.2372183 L153.922612,45.2372183 C152.151546,62.6677058 141.295014,73.2540754 123.664406,73.2540754 C101.93133,73.2540754 91.3549663,57.2444428 91.3549663,36.8321611 C91.3549663,16.4198795 102.901914,0 124.444876,0 C139.04366,0 151.080902,7.83471398 153.232197,22.7136663 L143.926598,22.7136663 Z" id="Path"></path>
                <path d="M157.664864,1.66099939 L190.564659,1.66099939 C203.692557,1.66099939 211.817446,8.81530398 211.817446,19.9720167 C211.817446,28.3970859 208.0852,35.3412641 199.680143,37.7026849 L199.680143,37.8927993 C207.805032,39.4637445 209.466031,45.4373387 210.146441,52.2814566 C210.82685,59.1255746 210.346561,66.7801802 214.268921,71.573064 L203.852654,71.573064 C201.211064,68.7313542 202.681949,61.1968208 201.311125,54.3426969 C200.310523,47.4885729 198.669535,41.7150991 189.654111,41.7150991 L166.940445,41.7150991 L166.940445,71.573064 L157.664864,71.573064 L157.664864,1.66099939 Z M186.36213,33.8803851 C195.067368,33.8803851 202.511847,31.6290305 202.511847,21.4429017 C202.511847,14.5887778 198.789607,9.49571337 190.08437,9.49571337 L166.970463,9.49571337 L166.970463,33.8803851 L186.36213,33.8803851 Z" id="Shape"></path>
                <path d="M246.448283,0 C268.671654,0 279.938433,17.630608 279.938433,36.6220347 C279.938433,55.6134614 268.671654,73.2340634 246.448283,73.2340634 C224.224911,73.2340634 212.958132,55.6134614 212.958132,36.6220347 C212.958132,17.630608 224.214905,0 246.448283,0 Z M246.448283,65.4093554 C263.458517,65.4093554 270.632834,50.7205175 270.632834,36.6220347 C270.632834,22.5235519 263.478529,7.83471398 246.448283,7.83471398 C229.418036,7.83471398 222.263731,22.5135459 222.263731,36.6220347 C222.263731,50.7305235 229.40803,65.4093554 246.448283,65.4093554 Z" id="Shape"></path>
                <polygon id="Path" points="-2.84388205e-14 83.2600958 12.727658 83.2600958 34.7409029 142.005442 56.864214 83.2600958 69.611884 83.2600958 69.611884 153.17216 60.806586 153.17216 60.806586 95.0571939 60.6064656 95.0571939 38.7733291 153.222191 30.8485609 153.222191 9.00541837 95.0571939 8.81530398 95.0571939 8.81530398 153.222191 -2.84388205e-14 153.222191"></polygon>
                <path d="M98.2090903,83.2600958 L108.485273,83.2600958 L135.801709,153.17216 L125.525526,153.17216 L117.890932,132.159518 L88.3231422,132.159518 L80.4884282,153.17216 L70.8926546,153.17216 L98.2090903,83.2600958 Z M91.2549061,124.28478 L114.949162,124.28478 L103.302155,91.685165 L103.102034,91.685165 L91.2549061,124.28478 Z" id="Shape"></path>
                <polygon id="Path" points="142.855953 91.0547857 119.551932 91.0547857 119.551932 83.2600958 175.465574 83.2600958 175.465574 91.0547857 152.161552 91.0547857 152.161552 153.092112 142.855953 153.092112"></polygon>
                <polygon id="Path" points="179.678109 83.2600958 188.983707 83.2600958 188.983707 153.17216 179.678109 153.17216"></polygon>
                <path d="M245.957988,104.312763 C243.956784,94.4268146 236.07204,89.4238044 226.376206,89.4238044 C209.69617,89.4238044 202.691955,103.132052 202.691955,117.730836 C202.691955,133.680433 209.69617,147.008452 226.476266,147.008452 C238.723635,147.008452 245.767873,138.383262 246.648403,126.836315 L255.954002,126.836315 C254.192943,144.256796 243.326404,154.853172 225.695796,154.853172 C203.96272,154.853172 193.386356,138.843539 193.386356,118.431258 C193.386356,98.0189759 204.94331,81.6191085 226.476266,81.6191085 C241.07505,81.6191085 253.112292,89.4438165 255.263587,104.332775 L245.957988,104.312763 Z" id="Path"></path>
            </g>
        </g>
    </g>
</svg>