<?xml version="1.0" encoding="UTF-8"?>
<svg width="415px" height="415px" viewBox="0 0 415 415" version="1.1" xmlns="http://www.w3.org/2000/svg" xmlns:xlink="http://www.w3.org/1999/xlink">
    <title>images / micromatic_second</title>
    <g id="images-/-micromatic_second" stroke="none" stroke-width="1" fill="none" fill-rule="evenodd">
        <path d="M227.710843,210.393586 L228.906277,210.403273 C268.279105,211.041767 300,243.164154 300,282.696793 C300,322.628752 267.635042,355 227.710843,355 C188.185887,355 156.069742,323.272939 155.431371,283.892459 L155.421687,282.696793 L155.421687,210.393586 L227.710843,210.393586 Z M72.2891566,107 C111.814113,107 143.930258,138.727061 144.568629,178.107541 L144.578313,179.303207 L144.578313,251.606414 L72.2891566,251.606414 L71.0937232,251.596727 C31.7208952,250.958233 0,218.835846 0,179.303207 C0,139.371248 32.3649578,107 72.2891566,107 Z" id="Combined-Shape" fill="#ED0000"></path>
        <path d="M362.354533,135.844238 C369.892619,135.844238 375.742065,137.830078 379.902872,141.801758 C383.937595,145.653084 386.232035,150.012521 386.786194,154.880069 L386.833048,155.337891 L378.970744,155.337891 L378.859504,154.881326 C377.93561,151.259413 376.196242,148.372051 373.641398,146.219238 C370.980102,143.976725 367.244832,142.855469 362.435587,142.855469 C356.572632,142.855469 351.837687,144.915609 348.230753,149.035889 C344.62382,153.156169 342.820353,159.47168 342.820353,167.982422 C342.820353,174.953125 344.448201,180.606689 347.703898,184.943115 C350.959594,189.279541 355.816121,191.447754 362.273478,191.447754 C368.217488,191.447754 372.743042,189.164714 375.850138,184.598633 C377.415844,182.314242 378.6036,179.3471 379.413403,175.697207 L379.538126,175.115234 L387.400431,175.115234 L387.332104,175.682282 C386.555646,181.701021 384.254854,186.76705 380.429728,190.880371 C375.701538,195.986816 369.325236,198.540039 361.300822,198.540039 C354.384155,198.540039 348.575236,196.446126 343.874064,192.258301 C337.686889,186.719564 334.593302,178.168294 334.593302,166.604492 C334.593302,157.823568 336.91687,150.62321 341.564005,145.003418 C346.589396,138.897298 353.519572,135.844238 362.354533,135.844238 Z M165.550293,137.465332 L182.652832,187.800293 L199.633789,137.465332 L211.0625,137.465332 L211.0625,197 L203.402832,197 L203.404853,161.227266 L203.404853,161.227266 L203.43,158.949652 L203.43,158.949652 L203.500898,154.880082 L203.500898,154.880082 L203.528917,152.946777 L203.528917,152.946777 L203.548931,150.953432 L203.548931,150.953432 L203.560939,148.900047 L203.560939,148.900047 L203.564941,146.786621 L186.583984,197 L178.600098,197 L161.497559,146.786621 L161.498809,149.124949 L161.498809,149.124949 L161.512881,150.658796 L161.512881,150.658796 L161.567919,153.847948 L161.567919,153.847948 L161.645186,157.469898 L161.645186,157.469898 L161.690092,160.295361 L161.690092,160.295361 L161.699073,161.392855 L161.699073,161.392855 L161.700195,197 L154,197 L154,137.465332 L165.550293,137.465332 Z M247.497447,137.465332 L269.098521,197 L260.26356,197 L254.224986,179.167969 L230.678599,179.167969 L224.234751,197 L215.967173,197 L238.378794,137.465332 L247.497447,137.465332 Z M311.369405,137.465332 L311.369405,144.557617 L291.30837,144.557617 L291.30837,197 L283.121846,197 L283.121846,144.557617 L263.060811,144.557617 L263.060811,137.465332 L311.369405,137.465332 Z M326.446441,137.465332 L326.446441,197 L318.300445,197 L318.300445,137.465332 L326.446441,137.465332 Z M242.593638,146.300293 L232.988658,172.602539 L251.631236,172.602539 L242.593638,146.300293 Z M382.901896,61.8442383 C393.411987,61.8442383 401.193237,65.2215169 406.245646,71.9760742 C410.190307,77.2446289 412.162638,83.9856771 412.162638,92.1992188 C412.162638,101.088216 409.906616,108.477702 405.394572,114.367676 C400.098999,121.284342 392.547404,124.742676 382.739787,124.742676 C373.580607,124.742676 366.380249,121.716634 361.138712,115.664551 C356.464559,109.828613 354.127482,102.452637 354.127482,93.5366211 C354.127482,85.4851888 356.126831,78.5955404 360.125529,72.8676758 C365.258992,65.5187174 372.851115,61.8442383 382.901896,61.8442383 Z M266.951436,61.8442383 C274.489522,61.8442383 280.338969,63.8300781 284.499776,67.8017578 C288.534498,71.6530836 290.828939,76.0125207 291.383098,80.8800693 L291.429952,81.3378906 L283.567647,81.3378906 L283.456408,80.8813258 C282.532514,77.2594133 280.793145,74.3720508 278.238301,72.2192383 C275.577006,69.9767253 271.841736,68.8554688 267.032491,68.8554688 C261.169535,68.8554688 256.434591,70.9156087 252.827657,75.0358887 C249.220723,79.1561686 247.417257,85.4716797 247.417257,93.9824219 C247.417257,100.953125 249.045105,106.606689 252.300801,110.943115 C255.556498,115.279541 260.413025,117.447754 266.870382,117.447754 C272.814392,117.447754 277.339945,115.164714 280.447042,110.598633 C282.012748,108.314242 283.200503,105.3471 284.010307,101.697207 L284.13503,101.115234 L291.997335,101.115234 L291.929008,101.682282 C291.15255,107.701021 288.851758,112.76705 285.026632,116.880371 C280.298441,121.986816 273.922139,124.540039 265.897725,124.540039 C258.981059,124.540039 253.172139,122.446126 248.470967,118.258301 C242.283793,112.719564 239.190206,104.168294 239.190206,92.6044922 C239.190206,83.8235677 241.513773,76.6232096 246.160909,71.003418 C251.1863,64.8972982 258.116475,61.8442383 266.951436,61.8442383 Z M165.550293,63.465332 L182.652832,113.800293 L199.633789,63.465332 L211.0625,63.465332 L211.0625,123 L203.402832,123 L203.404853,87.2272658 L203.404853,87.2272658 L203.43,84.9496516 L203.43,84.9496516 L203.500898,80.8800817 L203.500898,80.8800817 L203.528917,78.9467773 L203.528917,78.9467773 L203.548931,76.9534324 L203.548931,76.9534324 L203.560939,74.900047 L203.560939,74.900047 L203.564941,72.7866211 L186.583984,123 L178.600098,123 L161.497559,72.7866211 L161.498809,75.1249488 L161.498809,75.1249488 L161.512881,76.6587961 L161.512881,76.6587961 L161.567919,79.8479479 L161.567919,79.8479479 L161.645186,83.4698983 L161.645186,83.4698983 L161.690092,86.2953615 L161.690092,86.2953615 L161.699073,87.3928554 L161.699073,87.3928554 L161.700195,123 L154,123 L154,63.465332 L165.550293,63.465332 Z M231.043345,63.465332 L231.043345,123 L222.897349,123 L222.897349,63.465332 L231.043345,63.465332 Z M328.067535,63.465332 L328.655067,63.469086 C332.930484,63.5241439 336.476665,64.1848392 339.293609,65.4511719 C344.886383,67.9908854 347.68277,72.6785482 347.68277,79.5141602 C347.68277,83.0805664 346.946523,85.9985352 345.474029,88.2680664 C344.001536,90.5375977 341.941396,92.3613281 339.293609,93.7392578 C341.617177,94.6848958 343.366607,95.9277344 344.5419,97.4677734 C345.668223,98.9436442 346.316883,101.300398 346.487881,104.538036 L346.507477,104.965332 L346.807632,113.367949 L346.826629,113.773064 L346.826629,113.773064 L346.872223,114.54245 C346.973541,116.026764 347.13565,117.184326 347.358551,118.015137 C347.819283,119.806872 348.619501,120.992381 349.759207,121.571664 L349.952301,121.662598 L349.952301,123 L340.063629,123 L339.964844,122.800529 C339.740255,122.318845 339.557037,121.723389 339.415191,121.01416 L339.388423,120.872064 L339.388423,120.872064 L339.336388,120.545844 L339.336388,120.545844 L339.286355,120.163586 L339.286355,120.163586 L339.238322,119.725291 L339.238322,119.725291 L339.192291,119.230957 L339.192291,119.230957 L339.126997,118.384386 L339.126997,118.384386 L339.085969,117.749958 L339.085969,117.749958 L339.046943,117.059492 L339.046943,117.059492 L338.52359,106.383789 L338.502178,106.022803 C338.242893,102.331464 336.804555,99.8445333 334.187164,98.5620117 C332.717127,97.8656783 330.447009,97.5016858 327.376812,97.4700343 L326.93277,97.4677734 L308.573883,97.4677734 L308.573883,123 L300.508941,123 L300.508941,63.465332 L328.067535,63.465332 Z M383.388224,69.0175781 C377.228068,69.0175781 372.202677,71.1317546 368.312052,75.3601074 C364.421427,79.5884603 362.476115,85.8229167 362.476115,94.0634766 C362.476115,100.655924 364.14449,106.214925 367.481242,110.740479 C370.817993,115.266032 376.228393,117.528809 383.712443,117.528809 C390.818237,117.528809 395.958455,114.98234 399.133097,109.889404 C402.307739,104.796468 403.89506,98.9402669 403.89506,92.3208008 C403.89506,85.3230794 402.064575,79.6897786 398.403605,75.4208984 C394.742635,71.1520182 389.737508,69.0175781 383.388224,69.0175781 Z M328.270172,70.3955078 L308.573883,70.3955078 L308.573883,90.7402344 L327.216461,90.7402344 C330.999013,90.7402344 333.991282,89.983724 336.193268,88.4707031 C338.395253,86.9576823 339.496246,84.2288411 339.496246,80.2841797 C339.496246,76.0423177 337.956207,73.1513672 334.876129,71.6113281 C333.324965,70.8484605 331.283172,70.4445894 328.750751,70.3997148 L328.270172,70.3955078 Z" id="Shape" fill="#000000"></path>
    </g>
</svg>